<svg width="42" height="42" viewBox="0 0 42 42" fill="none" xmlns="http://www.w3.org/2000/svg">
<path d="M27.5626 33.985C27.2146 33.9847 26.881 33.8462 26.6351 33.6C26.5159 33.4724 26.421 33.3241 26.3551 33.1625C26.2852 33.0086 26.2493 32.8415 26.2501 32.6725C26.2483 32.4999 26.2814 32.3287 26.3476 32.1693C26.4138 32.0099 26.5116 31.8655 26.6351 31.745C26.7557 31.621 26.8981 31.5202 27.0551 31.4475C27.2978 31.3555 27.5617 31.3346 27.8159 31.3873C28.07 31.44 28.3039 31.5641 28.4901 31.745C28.6136 31.8655 28.7114 32.0099 28.7775 32.1693C28.8437 32.3287 28.8769 32.4999 28.8751 32.6725C28.8758 32.8415 28.84 33.0086 28.7701 33.1625C28.7041 33.3241 28.6092 33.4724 28.4901 33.6C28.2442 33.8462 27.9106 33.9847 27.5626 33.985Z" fill="#ECE6FC"/>
<path d="M27.5625 28.2975C27.2144 28.2975 26.8806 28.1592 26.6344 27.9131C26.3883 27.6669 26.25 27.3331 26.25 26.985C26.2495 26.8104 26.2852 26.6376 26.355 26.4775C26.4167 26.3188 26.5123 26.1755 26.635 26.0575C26.8854 25.8199 27.2174 25.6875 27.5625 25.6875C27.9076 25.6875 28.2396 25.8199 28.49 26.0575C28.6127 26.1755 28.7083 26.3188 28.77 26.4775C28.8398 26.6376 28.8756 26.8104 28.875 26.985C28.8736 27.1538 28.8379 27.3205 28.77 27.475C28.7081 27.6387 28.6127 27.7877 28.49 27.9125C28.2441 28.1587 27.9105 28.2972 27.5625 28.2975V28.2975Z" fill="#ECE6FC"/>
<path d="M30.3795 39.8125H11.6195C10.4824 39.8125 9.39187 39.3608 8.58781 38.5567C7.78375 37.7527 7.33203 36.6621 7.33203 35.525V6.475C7.33203 5.33788 7.78375 4.24734 8.58781 3.44328C9.39187 2.63922 10.4824 2.1875 11.6195 2.1875H30.3795C31.5166 2.1875 32.6072 2.63922 33.4113 3.44328C34.2153 4.24734 34.667 5.33788 34.667 6.475V35.525C34.667 36.6621 34.2153 37.7527 33.4113 38.5567C32.6072 39.3608 31.5166 39.8125 30.3795 39.8125ZM11.6195 4.8125C11.1707 4.83497 10.7478 5.02921 10.4383 5.355C10.1288 5.68078 9.95647 6.11314 9.95703 6.5625V35.525C9.97824 35.9591 10.1602 36.3697 10.4675 36.677C10.7748 36.9843 11.1855 37.1663 11.6195 37.1875H30.3795C30.8136 37.1663 31.2243 36.9843 31.5316 36.677C31.8389 36.3697 32.0208 35.9591 32.042 35.525V6.475C32.0426 6.02564 31.8703 5.59328 31.5608 5.2675C31.2513 4.94171 30.8283 4.74747 30.3795 4.725L11.6195 4.8125Z" fill="#ECE6FC"/>
<path d="M17.2891 33.985C16.941 33.985 16.6071 33.8467 16.361 33.6006C16.1148 33.3544 15.9766 33.0206 15.9766 32.6725V26.985C15.9766 26.6369 16.1148 26.303 16.361 26.0569C16.6071 25.8108 16.941 25.6725 17.2891 25.6725C17.6372 25.6725 17.971 25.8108 18.2171 26.0569C18.4633 26.303 18.6016 26.6369 18.6016 26.985V32.6725C18.597 33.0192 18.4573 33.3504 18.2121 33.5956C17.967 33.8407 17.6358 33.9805 17.2891 33.985V33.985Z" fill="#ECE6FC"/>
<path d="M20.125 31.1324H14.4375C14.0894 31.1324 13.7556 30.9942 13.5094 30.748C13.2633 30.5019 13.125 30.168 13.125 29.8199C13.125 29.4718 13.2633 29.138 13.5094 28.8919C13.7556 28.6457 14.0894 28.5074 14.4375 28.5074H20.125C20.4731 28.5074 20.8069 28.6457 21.0531 28.8919C21.2992 29.138 21.4375 29.4718 21.4375 29.8199C21.4375 30.168 21.2992 30.5019 21.0531 30.748C20.8069 30.9942 20.4731 31.1324 20.125 31.1324Z" fill="#ECE6FC"/>
<path d="M33.3545 22.3125H8.64453C8.29643 22.3125 7.96259 22.1742 7.71645 21.9281C7.47031 21.6819 7.33203 21.3481 7.33203 21C7.33203 20.6519 7.47031 20.3181 7.71645 20.0719C7.96259 19.8258 8.29643 19.6875 8.64453 19.6875H33.3545C33.7026 19.6875 34.0365 19.8258 34.2826 20.0719C34.5288 20.3181 34.667 20.6519 34.667 21C34.667 21.3481 34.5288 21.6819 34.2826 21.9281C34.0365 22.1742 33.7026 22.3125 33.3545 22.3125Z" fill="#ECE6FC"/>
</svg>
